<svg xmlns="http://www.w3.org/2000/svg" viewBox="0 0 302.77 160.2"><title>ciao</title><g id="Layer_2" data-name="Layer 2"><g id="Livello_1" data-name="Livello 1"><path d="M66.13,136.76c.13-.31.21-.53.3-.74a2.67,2.67,0,0,1,3.28-1.71,2.78,2.78,0,0,1,1.93,3.17c-.28,3.09-.54,6.2-.7,9.3a11,11,0,0,0,.36,3.08c.7,2.81,3.11,3.56,5.37,1.69a9.67,9.67,0,0,0,3.18-6,34.48,34.48,0,0,0,.3-3.94,19.27,19.27,0,0,1,.17-2.15,2.66,2.66,0,0,1,2.73-2.22,2.63,2.63,0,0,1,2.55,2.28c.14.91,0,1.85.17,2.75.31,1.79.66,3.59,1.12,5.35A4.17,4.17,0,0,0,88,149.26c1.18,1.19,2.8,1.06,3.44-.45a51,51,0,0,0,1.86-5.89c.18-.61.12-1.28.29-1.89a2.61,2.61,0,0,1,2.57-2,2.58,2.58,0,0,1,2.61,2.06c.17.85.06,1.75.16,2.62a27.33,27.33,0,0,0,.65,4.35,3.36,3.36,0,0,0,3.14,2.39c1.11.12,1.8-.23,2-1.33.14-.66.2-1.34.34-2a46.55,46.55,0,0,1,1.34-6.27c1.89-5.39,6.49-7.72,12-6.31l1.56.4V133.6c0-5.11,0-10.23,0-15.35,0-1.89,1.18-3.12,2.78-3.08s2.64,1.33,2.66,3.2q.09,9.84.25,19.67a3.07,3.07,0,0,0,.43,1.58,9,9,0,0,1,1,7.6,2.26,2.26,0,0,0,1.43,3c2.45,1.12,4.07.61,4.89-1.94a65.93,65.93,0,0,0,1.54-7c.11-.51.07-1,.17-1.55a2.76,2.76,0,0,1,2.8-2.45,2.73,2.73,0,0,1,2.61,2.76c0,1.16,0,2.32,0,3.48a7.36,7.36,0,0,0,2.16,5.27c.33-.25.63-.49.95-.7a2.57,2.57,0,0,1,2.84-.07,2.45,2.45,0,0,1,1.3,2.52,5.17,5.17,0,0,1-3.2,4.32c-1.63.67-3.15,0-4.45-1-.74-.59-1.39-1.31-2.19-2.08-1.59,2.79-3.83,4.48-7.16,4.35-3.09-.13-5.8-1.05-7.78-3.56-4.59,2.52-9.16,2.91-13.9.36-1.5,2.47-3.84,3.24-6.63,3a9.13,9.13,0,0,1-6.7-3.55c-1.62,2-3.55,3.27-6.2,3.1a8.41,8.41,0,0,1-6.29-3.35c-2,2.84-4.19,5.25-7.79,5.7s-6.5-.48-8.24-3.54a42,42,0,0,1-4.49,2.56,7.2,7.2,0,0,1-3.18.29c-1.83-.16-3.64-.55-5.47-.74-.31,0-.73.35-1,.64a8.81,8.81,0,0,1-10.58,2.3,10.18,10.18,0,0,1-4.59-4.58c-.65-1.14-1.21-2.32-1.86-3.58-3.25,2.78-6.45,5.35-11.06,5.1s-7.78-2.54-10.5-5.78L7.4,157.05c-.23.21-.48.42-.73.62a2.74,2.74,0,0,1-3.87-.3,2.66,2.66,0,0,1,.33-3.77c1.29-1.2,2.65-2.31,3.94-3.52.57-.54.95-1.29,1.55-1.8,1-.82,2.06-1.53,3.29-2.43-.12-.71-.38-1.78-.49-2.87a14,14,0,0,1,8.79-14.51,6.8,6.8,0,0,1,5.77.61c1,.51,1.9,1.2,2.87,1.74a4.44,4.44,0,0,1,2.08,3,2.66,2.66,0,0,1-1.38,3.14,2.77,2.77,0,0,1-3.43-.84,7.06,7.06,0,0,0-1.5-1.49c-2.19-1.44-2.88-1.35-4.85.41-4.29,3.82-4,9.86.72,13.9a7,7,0,0,0,9.22.44c.43-.3.84-.62,1.25-.93,2.12-1.63,4-3.35,2.66-6.42a56.49,56.49,0,0,1,2.11-23,22.83,22.83,0,0,1,1.8-4c2.3-4.13,6.57-3.32,8.77,0a10.13,10.13,0,0,1,1.62,5.45,42.94,42.94,0,0,1-7.06,25.23,2.26,2.26,0,0,0-.23,1.84A33.77,33.77,0,0,0,43.28,153c1.58,2.41,4,2.43,5.92.26a5.18,5.18,0,0,0,1.5-4.08,16,16,0,0,1,4.59-12.34c2.81-3,6.66-3.19,9.93-.68C65.5,136.33,65.79,136.52,66.13,136.76Zm49.16,12.42a7.46,7.46,0,0,0,4.89-1.41,1.83,1.83,0,0,0,.59-1.27,38.78,38.78,0,0,0-.36-4.29c-.06-.42-.31-1-.63-1.16a20.47,20.47,0,0,0-4.39-1.37c-1.83-.26-2.93,1-3.67,2.53a3.57,3.57,0,0,0,.48,4,4.73,4.73,0,0,1,1,1.87,1,1,0,0,0,1.09,1Zm-50.84-3.45A6.5,6.5,0,0,0,62,140.49c-.74-.59-1.72-1.06-2.37-.27a41.38,41.38,0,0,0-2.87,4.35c-.57.89-.07,1.66.26,2.47a9,9,0,0,1,.19,1.06,11,11,0,0,0,.68,2,2.74,2.74,0,0,0,4.73.55A7.19,7.19,0,0,0,64.45,145.73ZM39,137.7a36.58,36.58,0,0,0,3.37-18,6.2,6.2,0,0,0-.41-1.28C39.54,121.91,38.21,133.59,39,137.7Z"/><path d="M225.75,92.68a14.33,14.33,0,0,0,6.68,1.95c4.22.41,7.32-1.19,9.21-5,.22-.43.42-.87.67-1.28a2.69,2.69,0,0,1,3.55-1,2.59,2.59,0,0,1,1.26,3.37c-2.63,6-6.62,9.27-13.06,9.4a21.26,21.26,0,0,1-11.59-2.93,1.85,1.85,0,0,0-1.41-.17,13.33,13.33,0,0,1-17.2-6.46c-1.1-2.26-1.89-4.66-2.83-7a6.94,6.94,0,0,0-.34-.62,10.58,10.58,0,0,0-.54,1.27c-.73,2.57-1.48,5.14-2.16,7.73-.46,1.76-1.49,2.72-3,2.68s-2.55-1.09-2.8-3c-.28-2.22-.57-4.43-.86-6.65l-.4-.05c-.37,1.8-.85,3.59-1.09,5.4a40.34,40.34,0,0,0-.18,4.67c0,1.86-.94,3.06-2.53,3.21s-2.81-.89-3.12-2.77a33.35,33.35,0,0,0-3-9.34c-.18-.35-.37-.68-.73-1.32-.82,1.9-1.53,3.53-2.24,5.16-.54,1.24-1.07,2.5-1.64,3.73-2.44,5.34-7.53,5.6-11.76,3.73a20.8,20.8,0,0,1-3.15-2.18c-2.31,2.72-5.4,3.59-9,3.47a10.23,10.23,0,0,1-8.61-4.57c-.68.89-1.24,1.75-1.91,2.5-3.26,3.68-8.27,3.08-10.47-1.3-1-2-1.74-4.12-2.68-6.15a19.54,19.54,0,0,0-1.7-2.89c-.88-1.24-1.37-1.2-2.17.14a12.45,12.45,0,0,0-1.91,6.36c0,1.64,0,3.28,0,4.92,0,2.41-1,3.73-2.72,3.77s-2.78-1.28-2.84-3.78c0-1.76,0-3.53-.2-5.27a11.45,11.45,0,0,0-2.46-6c-.75-.93-1.32-1-2.05-.09a23.81,23.81,0,0,0-2.61,4c-1.22,2.43-2.27,4.94-3.36,7.44a3.56,3.56,0,0,1-2.91,2.2,2.52,2.52,0,0,1-2.75-1.29,2.7,2.7,0,0,1,.1-3c.85-1.43,1.63-2.9,2.43-4.35,1.49-2.69,2.78-5.51,4.52-8s4.35-3.84,7.51-2.77a11.12,11.12,0,0,1,3,2.06A9.8,9.8,0,0,1,120,84c.29-.39.52-.7.73-1,2.76-4.14,7.67-4.36,10.55-.27A55.89,55.89,0,0,1,135,89.54c.51,1,.82,2.09,1.31,3.1s1.15,1.17,1.76.2a23.45,23.45,0,0,0,2.16-4.38,14.76,14.76,0,0,0,.67-3.76c.25-3,1.6-4,4.55-3,.54-.79,1-1.65,1.65-2.42,2-2.57,4.47-4.5,7.95-4.45a9.33,9.33,0,0,1,5,1.67c3.5,2.26,4.16,5.75,4.25,9.47,0,1.73,0,3.39,1.05,4.93a4,4,0,0,0,4.31,1.92,2.7,2.7,0,0,0,1.66-1.33c.88-1.69,1.56-3.5,2.34-5.25,1.09-2.44,2-5,4.16-6.78a4.06,4.06,0,0,1,5.52.31c.88,1,1.6,2.15,2.42,3.27a38.67,38.67,0,0,1,1.73-3.47c1-1.69,2.43-2.82,4.65-2.47a3.53,3.53,0,0,1,2.61,1.68c.29.47.6.92.93,1.42.63-.94,1.17-1.86,1.83-2.7a3.86,3.86,0,0,1,1.37-1.1c2.47-1.13,4.52-.51,5.72,2,1.12,2.3,1.93,4.73,2.92,7.09a24.31,24.31,0,0,0,1.65,3.45,7.63,7.63,0,0,0,7.86,3.56c-.19-.34-.34-.64-.51-.91a11.49,11.49,0,0,1,2-14.56,6.09,6.09,0,0,1,6.79-1.29c2.27,1,3,3,3,5.28C228.53,85.08,228,89.05,225.75,92.68Zm-72.56.52h.6a4.55,4.55,0,0,0,4.6-5.69c-.25-1.49-.38-3-.49-4.52a2.8,2.8,0,0,0-2.3-2.66,3.5,3.5,0,0,0-3.07,1c-2.3,2-3,4.64-3.22,7.5C149,92.42,149.6,93.15,153.19,93.2Zm69.72-12.44c-2.91,1.07-3.51,6.76-1.27,8.14A15.73,15.73,0,0,0,222.91,80.76Z"/><path d="M78.17,30.3a40.37,40.37,0,0,1,1.62-5.16A5.9,5.9,0,0,1,87,22c3.39.9,5.76,3.19,7.83,5.85.58.75,1,.88,1.85.43a28.66,28.66,0,0,0,7.92-6.53c1.58-1.79,3.07-2.14,4.42-1s1.24,2.78-.36,4.6a32,32,0,0,1-9.86,7.89c-.67.33-.78.69-.66,1.4a15.33,15.33,0,0,1-1.47,10.26C93,51.42,85.94,50.78,82,48.27a36.41,36.41,0,0,1-3.27-2.59c-4.45,4.75-8.09,4.38-13.16-1.49-1.46,2.36-3.09,4.55-6,5.09a8.64,8.64,0,0,1-7.39-1.87A42.8,42.8,0,0,1,48,51.3c-3.39,2.41-7.44,1.45-9.6-2.11-.57-.95-1-2-1.57-3-3.34,4.22-7.17,7.34-12.93,6.72-5.48-.59-9.17-3.78-12-8.44-.51.64-1,1.13-1.33,1.68-1.79,2.7-3.58,5.4-5.32,8.13-1,1.59-2.54,2.15-3.93,1.32A2.72,2.72,0,0,1,.6,51.49C3.33,47.41,6.14,43.38,9,39.35a3.37,3.37,0,0,0,.69-2.29c-.19-3.36-.28-6.72.83-10,1.3-3.81,3.81-5.49,7.81-5.69,4.47-.22,7.76,1.77,10.46,5.05a2.72,2.72,0,0,1-.27,4c-1.27,1-2.81.71-4-.72A7.09,7.09,0,0,0,18,26.83a2.33,2.33,0,0,0-2.21,1.53,9.88,9.88,0,0,0-.6,2.19c-.62,5.06-.39,9.92,3.41,13.92a9.25,9.25,0,0,0,5.84,3c3.57.39,5.81-1.7,7.67-4.25a18.19,18.19,0,0,0,3.31-8.53,7,7,0,0,1,.21-1.18,2.72,2.72,0,0,1,2.75-2.06A2.67,2.67,0,0,1,41,33.9a17.22,17.22,0,0,1-.05,2.87,17.12,17.12,0,0,0,1.83,9.06c.78,1.53,1.61,1.68,2.9.53,2.66-2.39,3.51-5.53,3.75-8.94a10.51,10.51,0,0,1,.18-2.26,9.63,9.63,0,0,1,1.13-2.41c.56-.9,1.25-1.73,1.89-2.6,2.78-3.74,5.5-4.73,10-3.59a32.87,32.87,0,0,1,3.22.93,3.84,3.84,0,0,1,2.75,3.92c0,1.64-.06,3.28,0,4.92a10.14,10.14,0,0,0,2.28,5.82,3.63,3.63,0,0,0,1.18,1c1,.55,1.72.34,2-.79a20.29,20.29,0,0,0,.65-3.88c.09-1.31,0-2.63,0-3.95C74.65,31.46,75.42,30.57,78.17,30.3Zm2.29,4.45c-.34,3.41,2,7.73,4.82,9.19,1.93,1,4.39.85,5.61-.41,2.11-2.19,2.21-4.87,1.88-7.73C88.52,36.57,84.4,37.37,80.46,34.75Zm-25.72,5.5c0,2,.65,3.19,2.08,3.62,1.59.48,2.63,0,3.72-2a19.24,19.24,0,0,0,2.38-8.8,1.2,1.2,0,0,0-.25-.87c-1.07-1-4-.78-5,.27A11.23,11.23,0,0,0,54.74,40.25Zm35.38-9.31a9.32,9.32,0,0,0-4-3.49c-1.09-.4-1.54-.19-1.9.9-.53,1.63-.34,2.45.81,2.56C86.63,31.05,88.25,30.94,90.12,30.94Z"/><path d="M292.54,137.53l-7.85,5c1.05,2.09,1.74,4.35.43,6.56a5.22,5.22,0,0,1-2.4,2c-2.74,1.07-5.63.64-7.34-1.52-2.19-2.77-1.83-5.2,1.22-8.57L274,137.87c-.58.81-1.06,1.58-1.64,2.25-1.29,1.48-2.65,2.89-3.94,4.36a1.88,1.88,0,0,0-.54,1.21c.49,4.27-2.65,6.7-6.13,7.16a17.36,17.36,0,0,1-1.91.16,4.3,4.3,0,0,1-4.2-2.58,4.23,4.23,0,0,1,1.62-4.35c1.14-.92,2.36-1.74,3.65-2.68l-4.2-5.18c-.4.9-.72,1.69-1.1,2.46-1.51,3.06-3.52,5.75-6.94,6.73-4.24,1.22-8.34.79-11.81-2.28a3.32,3.32,0,0,0-2.24-.78c-2-.13-3.07.41-3.87,2.54a12.13,12.13,0,0,1-7.21,7.44,10.42,10.42,0,0,1-4.34.46,4.58,4.58,0,0,1-3.65-2.45c-1.73-3.19-2.17-6.48-.21-9.67a15.56,15.56,0,0,1,3-2.89c-2.51-.32-5.84,2.25-6.24,5,0,.19,0,.39-.06.59a2.81,2.81,0,0,1-2.88,2.77,2.94,2.94,0,0,1-2.75-2.95c-.16-3.59-.42-7.19-.4-10.78,0-5.47.24-11,.4-16.42a12.3,12.3,0,0,1,.36-2.24,2.69,2.69,0,0,1,3.09-2.2,2.62,2.62,0,0,1,2.22,3.06c-1.09,6-.58,12.13-.66,18.2v1.62a21.42,21.42,0,0,1,2.08-1,18.83,18.83,0,0,1,14,0c1.33.54,2.31,2,3.39,3.08.46.47,2.65.87,3.06.39a2,2,0,0,0,.22-1,16.33,16.33,0,0,1,3.12-8.81,6.38,6.38,0,0,1,8.14-2.29,4.65,4.65,0,0,1,2.78,4.25c0,3.65-1.87,6.44-4.23,9-.62.67-1.33,1.26-2,1.89a6,6,0,0,0,6.4-.44,9.8,9.8,0,0,0,3.28-6.24,28.56,28.56,0,0,0,0-5.47,3.21,3.21,0,0,1,2.48-3.57c1.64-.29,2.91.71,3.24,2.57a2.76,2.76,0,0,0,.22.92,57.54,57.54,0,0,0,7.67,10.44c1.15-1.41,2.27-2.74,3.34-4.1.4-.5.7-1.07,1.05-1.61a4,4,0,0,0,.74-3.35,8.11,8.11,0,0,1,.27-3.41,2.62,2.62,0,0,1,3-2.16c2,.22,3.35,1.3,3.41,2.93,0,1-.21,2.07-.22,3.1a3,3,0,0,0,.37,1.64c1.11,1.51,2.31,3,3.55,4.38a1.23,1.23,0,0,0,1.17.24c2.23-1.33,4.44-2.7,6.58-4.17a8.19,8.19,0,0,0,3.14-3.84,2.5,2.5,0,0,1,2.68-1.62,2.62,2.62,0,0,1,2.43,2.15c.22,1,.24,2.06.43,3.08.57,3.13,2.15,5.83,3.77,8.5.48.79,1,1.55,1.44,2.36a3.3,3.3,0,0,1-2.4,4.67,2.77,2.77,0,0,1-3-2.28,10.58,10.58,0,0,0-.88-2.31C295,142,293.73,139.76,292.54,137.53Zm-66.59,7a7.36,7.36,0,0,0-.92-.09c-1,0-2,.06-3,.17-2.14.24-2.74,1.05-2.49,3.2.2,1.68.94,2.12,2.42,1.3A10.07,10.07,0,0,0,226,144.55ZM240.08,136a6.77,6.77,0,0,0,2.49-4.28C240.93,132.68,240.47,134.32,240.08,136Z"/><path d="M75.05,104.24l-2.71-8.73c-1.65,3-3.3,5.43-6.72,5.76s-5.58-1.43-7.37-4a38.09,38.09,0,0,1-2.37,3.47c-4.13,4.86-10.94,4-13.47-1.83-1.18-2.71-1.59-5.75-2.34-8.64a4,4,0,0,0-.56-1.44c-.45,1.3-.95,2.59-1.34,3.91-.77,2.64-1.5,5.31-2.23,8-.53,1.89-1.52,2.78-3,2.68A3.47,3.47,0,0,1,30,100.22c-.64-4.15-1.28-8.29-2-12.43A25.9,25.9,0,0,0,27.19,85c-.29.7-.47,1.09-.6,1.49-1.43,4.55-2.69,9.13-2.68,14a5.2,5.2,0,0,1-.22,1.42,2.7,2.7,0,0,1-2.58,2,2.6,2.6,0,0,1-2.57-2,12.53,12.53,0,0,1-.23-2.74,39.09,39.09,0,0,0-1.57-11.48c-.24-.79-.56-1.56-1-2.63-.44.71-.78,1.16-1,1.66a45.42,45.42,0,0,0-4.74,15,2.81,2.81,0,0,1-5.58.45,3,3,0,0,1,0-1.07c1.18-5.94,2.72-11.77,5.64-17.13a18.69,18.69,0,0,1,2-3c2.38-2.9,6-2.6,8,.62.51.86.91,1.77,1.46,2.85.44-1,.79-1.91,1.22-2.77a6.67,6.67,0,0,1,2.69-3.1,3.91,3.91,0,0,1,5.42,1.73,55.19,55.19,0,0,1,2.51,6.33,18.68,18.68,0,0,1,.46,1.82c.72-1.64,1.22-3,1.9-4.27a10.4,10.4,0,0,1,2-2.79,3.56,3.56,0,0,1,5.89,1.34,72.74,72.74,0,0,1,2,7.51c.43,1.74.76,3.51,1.21,5.25a6.18,6.18,0,0,0,.88,1.83,2.27,2.27,0,0,0,3.77.33,10.65,10.65,0,0,0,2.78-6.5c.21-1.7.16-3.43.22-5.15,0-.64,0-1.28.09-1.91a2.7,2.7,0,0,1,5.38,0A8.12,8.12,0,0,1,60,85.56C59.84,89,61.22,92,63.13,94.68c1.2,1.72,2.38,1.63,3.51-.18a14.31,14.31,0,0,0,2-6.49c.12-1.47.1-3,.16-4.43a13.24,13.24,0,0,1,.11-1.79,2.66,2.66,0,0,1,2.47-2.24,2.61,2.61,0,0,1,2.77,2c.22.88.15,1.84.38,2.72.56,2.21,1.17,4.4,1.85,6.57,1.23,3.89,2.53,7.75,3.79,11.63.16.5.23.94,1,1,1.89,0,2.91.86,3.11,2.32s-.63,2.52-2.39,3.07c-.11,0-.21.1-.32.15.11,2.17.27,4.32.31,6.47.07,3.38-.17,6.72-1.8,9.8-2.42,4.58-9.32,6.57-13.77,3.88a8.06,8.06,0,0,1-3.59-5.73c-1.72-9,2.62-16.14,11.35-18.79Zm1,5.63c-6.07.41-10.58,8.86-7.55,13.89a2.37,2.37,0,0,0,1.16.94,4.76,4.76,0,0,0,6-3C76.89,117.8,76.35,113.83,76,109.87Z"/><path d="M288.85,82.67c-1,1.81-1.85,3.44-2.8,5a20.21,20.21,0,0,1-4.94,5.65c-3.11,2.4-8.84,2.48-11.58-1.69A5.84,5.84,0,0,0,269,91l-2.67,3.3a12.48,12.48,0,0,1-.94,1.09,2.68,2.68,0,0,1-4.12-3.38,23.4,23.4,0,0,1,1.86-2.35,17.43,17.43,0,0,0,4.22-10.37,14.55,14.55,0,0,1,.4-2.36,2.68,2.68,0,0,1,5.3.53c0,1.64-.12,3.28-.1,4.92a21.47,21.47,0,0,0,.28,4.4c.65,2.94,3.16,3.74,5.27,1.6a23.28,23.28,0,0,0,6.71-13c0-.24,0-.48.09-.71a2.87,2.87,0,0,1,2.49-2.27,2.91,2.91,0,0,1,2.82,1.64c1.69,3.17,3.33,6.36,5.16,9.45,1.62,2.75,2.8,5.56,2.46,8.84A7.93,7.93,0,0,1,292.6,99c-2.72.73-5.12-1.14-5.24-4.15a12,12,0,0,1,.25-2.86c.49-2.49,2.71-3.25,4.67-1.64l.61.44C292.39,87.51,290.25,85.37,288.85,82.67Z"/><path d="M163.9,150.4c-3.7,3.34-7.84,3.21-12,1.52a6.41,6.41,0,0,1-4.3-6.45,13,13,0,0,1,6.92-11.67,8,8,0,0,1,3.21-.84,49.13,49.13,0,0,1,5.15-.05,2.72,2.72,0,0,1,2.87,3.18c0,.35.28.72.43,1.08a11,11,0,0,1,1.08,2.54c.18,1.09-.1,2.25,0,3.35a11.86,11.86,0,0,0,.83,3.56,3.49,3.49,0,0,0,5.49,1.46,9,9,0,0,0,2.28-2.25,45.66,45.66,0,0,0,2.66-4.54c.85-1.6,2.28-2.27,3.73-1.61a2.6,2.6,0,0,1,1.21,3.75,47.22,47.22,0,0,1-4.55,7.14C175,155.28,167.86,155.77,163.9,150.4Zm-2.26-12.25c-1.67.2-3.57,0-5,.71A7,7,0,0,0,153,145.3a2.08,2.08,0,0,0,.75,1.49,4.8,4.8,0,0,0,7.32-2.15,9.66,9.66,0,0,0,.53-2.68C161.71,140.82,161.64,139.66,161.64,138.15Z"/><path d="M115.66,11.21c0-2.87-.07-5.75,0-8.62A2.62,2.62,0,0,1,118.56,0a2.76,2.76,0,0,1,2.5,3.1,128.44,128.44,0,0,0,.7,22.61c.39,3.85.84,7.7,1.26,11.55,0,.24,0,.48,0,.72a2.75,2.75,0,0,1-2.39,3.17,2.7,2.7,0,0,1-3-2.61C116.75,29.45,115.45,20.38,115.66,11.21Z"/><path d="M44.86,16.37a14,14,0,0,1-.8,2.31A2.54,2.54,0,0,1,41,19.83a2.6,2.6,0,0,1-1.84-2.75,8.73,8.73,0,0,1,.69-2.39,2.57,2.57,0,0,1,3-1.36A2.82,2.82,0,0,1,44.86,16.37Z"/><path d="M297.51,121.32a2.71,2.71,0,1,1-2.73-2.75A2.76,2.76,0,0,1,297.51,121.32Z"/><path d="M125.84,54.68a2.7,2.7,0,1,1-5.39.13,2.7,2.7,0,1,1,5.39-.13Z"/><path d="M134.29,127.75a2.69,2.69,0,1,1,2.67,2.66A2.69,2.69,0,0,1,134.29,127.75Z"/><path d="M272.11,63.94a2.69,2.69,0,0,1-2.66,2.69,2.7,2.7,0,1,1,2.66-2.69Z"/></g></g></svg>