<svg xmlns="http://www.w3.org/2000/svg" viewBox="0 0 424.33 307.17"><defs><style>.cls-1{fill:#fff;}.cls-2{fill:none;stroke:#000;stroke-linecap:round;stroke-linejoin:round;stroke-width:3.2px;}</style></defs><title>contactcloud</title><g id="Layer_2" data-name="Layer 2"><g id="Livello_1" data-name="Livello 1"><path class="cls-1" d="M100,70.33S18.51,50.57.49,139.85c0,0-11.33,85.94,74.86,85.92,0,0-4.22,73.19,81,81.07,0,0,70.57,6.92,113.05-43.12,0,0,124.18,27.1,154.59-114.12,0,0,14.64-140.08-140.78-119.81,0,0-25.42-40.55-93.24-27C189.94,2.76,146.57,7.26,100,70.33Z"/><path class="cls-2" d="M162.55,96c7.9-3.35,15.7-7.36,21.84-13.36s10.49-14.27,10.16-22.85c-.1-2.64-.78-5.51-2.9-7.1-2.91-2.2-7.38-.88-9.7,1.93s-3,6.62-3.31,10.25c-1,11.81.63,23.72-.22,35.54s-4.82,24.3-14.4,31.28c-2,1.47-4.37,2.7-6.86,2.55-5.28-.3-8.34-6.93-6.78-12s6.16-8.54,10.78-11.11c15.3-8.49,34.73-11.56,45-25.69,1.48-2,2.71-4.9,1.23-6.94-1.26-1.72-4-1.8-5.8-.7a11.29,11.29,0,0,0-3.91,5c-2.62,5.36-3.84,12.89,1,16.4,4.22,3.08,10.28.82,14.34-2.45A34.26,34.26,0,0,0,222.82,84c1.26-2.85,1.48-7.19-1.5-8.06s-5,2.67-5.94,5.56c-1.71,5.54-2.82,12.3,1.15,16.53,4.26,4.53,11.81,3.34,17.37.53A42.9,42.9,0,0,0,257,61.36,13.31,13.31,0,0,0,255.35,54c-1.37-2.14-4.14-3.55-6.51-2.64a7.63,7.63,0,0,0-3.33,3.09c-7.57,11.14-7.23,25.87-4.39,39,1.13,5.29,3.47,11.37,8.74,12.6,3.89.92,7.76-1.26,11.16-3.36"/><path class="cls-2" d="M278.31,105.33a53.31,53.31,0,0,0,35.27-36.24,16,16,0,0,0,.63-7.65c-.56-2.52-2.4-4.91-4.94-5.41-4.6-.9-7.94,4.3-9.27,8.8-7.51,25.5,2.41,55-10.27,78.39a13.67,13.67,0,0,1-4.55,5.42c-4.9,3-11.91-.53-13.81-6s.35-11.6,4.15-15.9,9-7.15,14-10c6-3.37,11.94-6.89,16.8-11.72s8.54-11.18,8.87-18a13.32,13.32,0,0,0,10.56-2.79,56.44,56.44,0,0,0-6.27,16.08c-.44,2-.77,4.14,0,6,1.38,3.6,6,4.89,9.78,4.31A16.89,16.89,0,0,0,343,96.6a8,8,0,0,0-.94-5.49c-1-1.57-3.26-2.48-4.94-1.59-1.51.8-2.09,2.64-2.44,4.31-1.42,6.6-.92,14.82,4.87,18.29,4.94,3,11.64.79,15.65-3.35,2.37-2.46,3.45-5.76,4.2-9.1.94-4.2-1.24-11-5-8.22-4.55,4.3-4.54,12-1.08,17.25s9.57,8.16,15.72,9.3c3.5.65,8.38-1.24,8.6-4.8"/><path class="cls-2" d="M76.67,171.5c12-14.48,14-34.61,14.25-53.41,0,14.72.07,29.63,3.86,43.85a17.84,17.84,0,0,0,3,6.75,7,7,0,0,0,6.49,2.8c2.22-.42,3.92-2.21,5.19-4.08a24.58,24.58,0,0,0,4.1-16A24,24,0,0,0,114.85,162c1.36,3.31,4.09,6.21,7.57,7,4.88,1.16,10.12-2.23,12-6.89s.82-10.12-1.73-14.45c-1.71-2.89-4.36-5.55-7.7-5.94-3-.37-6.07,1.28-8.16,3.54s-3.47,6.41-1.14,8.64a6.23,6.23,0,0,0,3.82,1.44c6.5.61,12.94-3.29,16.31-8.88s3.9-12.58,2.44-19"/><path class="cls-2" d="M90.61,133.4a126.09,126.09,0,0,1,21.42-2"/><path class="cls-2" d="M145.61,170.78a32.64,32.64,0,0,0,7.9-11.85,20.15,20.15,0,0,0,1,7.13,6.86,6.86,0,0,0,5.19,4.52A6.71,6.71,0,0,0,163,170c5.22-2.21,7.53-8.81,6.3-14.35a6.71,6.71,0,0,0-1.88-3.7,5.34,5.34,0,0,0-5.36-.68,10.13,10.13,0,0,0-4.29,3.61,19.4,19.4,0,0,0-3.75,11.62"/><path class="cls-2" d="M173.84,150.84c-4.63,16.86-1.5,35.46-8.18,51.61-1.34,3.23-3.35,6.57-6.67,7.68-5.12,1.71-10.64-3.4-10.87-8.8s3.41-10.29,7.77-13.48,9.5-5.11,14.19-7.79c8.8-5,16.24-13.24,18.18-23.18.5-2.56-.13-6.14-2.73-6.33a4.18,4.18,0,0,0-2.77,1.1c-3.85,3-5.37,8.39-4.56,13.21.75,4.44,3.52,8.69,7.67,10.43,4.87,2,10.71.25,14.67-3.23s6.39-8.39,8.33-13.3a103.4,103.4,0,0,0,6.93-30.64A207.94,207.94,0,0,0,212,170.37c0,3,.2,6.12,2,8.5,2.31,3.09,6.79,3.86,10.51,2.88s6.9-3.4,10-5.75"/><path class="cls-2" d="M232,146.06a131.83,131.83,0,0,1-19.87-2.9"/><path class="cls-2" d="M116,257.27c4.13-2.13,6.63-6.61,7.5-11.18s.35-9.26-.17-13.88a52.74,52.74,0,0,0,4.89,17.92c.77,1.62,2,3.44,3.81,3.31,2.1-.15,2.94-2.74,3.26-4.83l2.19-14.27c.4-2.56,1.49-5.79,4.09-5.85,1.61,0,2.91,1.29,3.88,2.58a29.89,29.89,0,0,1,5.89,16.86,22.57,22.57,0,0,1,.39-18.72,4.34,4.34,0,0,1,2-2.31c1.83-.72,3.69.95,4.77,2.59,3.17,4.83,4.55,10.8,8.44,15.07a3.41,3.41,0,0,0,2.76,1.43c1.47-.2,2.12-1.94,2.31-3.41a20.24,20.24,0,0,0-.68-8.3"/><path class="cls-2" d="M186,246.74a57.82,57.82,0,0,0,8.61-54.45L203,226.83c1.26,5.23,3.27,11.29,8.4,12.86,3.08.94,6.39-.42,8.76-2.59,1.46-1.34,1.81-2,2.79-4.36"/><path class="cls-2" d="M219.75,224.43a14.55,14.55,0,0,0,2,6.59,10.44,10.44,0,0,0,6.71,5.64c5.32,1.17,10.51-3.57,11.78-8.87a14.61,14.61,0,0,0-4-13.91,12.75,12.75,0,0,0-14.09-2.11c-3.37,1.73-5.85,5.88-4.31,9.34a6.89,6.89,0,0,0,5.46,3.75,12.46,12.46,0,0,0,6.71-1.27,21.71,21.71,0,0,0,12.4-19.87,35.06,35.06,0,0,0,5.93,19.63c1.52,2.27,3.81,4.56,6.51,4.21,3.36-.43,4.8-4.49,5.12-7.86a43.67,43.67,0,0,0-1.87-17.41,33.89,33.89,0,0,0,6,17.08c1.48,2.12,3.47,4.21,6.05,4.45s5.32-2.54,4.13-4.83"/><path class="cls-2" d="M283.34,199.28c-2.76-1.29-6.23-.29-8.36,1.88a12.63,12.63,0,0,0-3.2,8.34c-.19,4.32,1.26,8.85,4.5,11.71s8.4,3.63,12,1.23c2.57-1.71,4-4.64,5.3-7.44,3.34-7.14,6.7-14.39,8-22.17s.23-16.27-4.55-22.53c-1.13-1.48-3.17-2.92-4.7-1.85-1,.7-1.15,2.11-1.15,3.34-.08,17.38,8.67,33.63,10.6,50.91A17.8,17.8,0,0,1,306,208c1.25-1.4,3-2.68,4.88-2.24a5.36,5.36,0,0,1,2.31,1.46c3.89,3.71,7,9.69,12.41,9.36,2.95-.18,5.44-2.45,6.73-5.1s1.59-5.66,1.89-8.6"/><path class="cls-2" d="M213.63,198.42a39.69,39.69,0,0,0-15,5.29,1.25,1.25,0,0,1,1.08-.86"/><path d="M122.37,219.32a1.72,1.72,0,0,0-.39,0,2.25,2.25,0,0,0,.38,4.46,2.69,2.69,0,0,0,.4,0,2.25,2.25,0,0,0-.39-4.47Z"/></g></g></svg>