<svg xmlns="http://www.w3.org/2000/svg" viewBox="0 0 16.24 16"><defs><style>.cls-1{fill:#ff7cc5;}</style></defs><title>favpink</title><g id="Layer_2" data-name="Layer 2"><g id="Livello_1" data-name="Livello 1"><path class="cls-1" d="M8.54,3c.28-.51.52-1,.78-1.45A3,3,0,0,1,11.58.06a5.54,5.54,0,0,1,2.55.23,3.23,3.23,0,0,1,2.11,3,13.47,13.47,0,0,1-3.39,8.78q-1.54,1.73-3.11,3.44a1,1,0,0,1-1.54.26A16.68,16.68,0,0,1,.76,8.4,7.49,7.49,0,0,1,.6,2.17,2.88,2.88,0,0,1,2.89.37a6.35,6.35,0,0,1,3,.11,4.15,4.15,0,0,1,2.36,2Z"/></g></g></svg>