<svg xmlns="http://www.w3.org/2000/svg" viewBox="0 0 435.28 61.41"><defs><style>.cls-1{fill:none;stroke:#010101;stroke-linecap:round;stroke-linejoin:round;stroke-width:4px;}.cls-2{fill:#010101;}</style></defs><title>firmathic</title><g id="Layer_2" data-name="Layer 2"><g id="Layer_1-2" data-name="Layer 1"><g id="Layer_2-2" data-name="Layer 2"><g id="Livello_1" data-name="Livello 1"><path class="cls-1" d="M104.76,36c-4.31.59-7.59,4.89-7.61,9.24a12.4,12.4,0,0,0,6.63,10.52,7.58,7.58,0,0,0,5.13,1.06c2.6-.54,4.33-3,5.64-5.28a59.44,59.44,0,0,0,7.64-30.32c-.09-4.21-1.11-9.12-4.91-10.92a2.5,2.5,0,0,0-2-.19A2.9,2.9,0,0,0,114,12a49.55,49.55,0,0,0,.26,33.73c1.61,4.31,4.37,8.82,8.87,9.84a4.65,4.65,0,0,0,3.32-.31,5.49,5.49,0,0,0,1.74-1.75,21,21,0,0,0,3.31-16.19c-.31,4.63-.55,9.59,1.82,13.57a4.27,4.27,0,0,0,1.94,1.91c2.33,1,4.54-1.64,5.45-4,1.89-4.88,2-11-1.77-14.72a4.61,4.61,0,0,0-2.53-1.39A4,4,0,0,0,132.59,35a12,12,0,0,0-1,4.64"/><path class="cls-1" d="M141.83,45.39c1,2.61,2.21,5.47,4.77,6.59,2.84,1.24,6.27-.31,8.16-2.75s2.62-5.58,3.29-8.6"/><path class="cls-1" d="M176.19,54.25a34.82,34.82,0,0,0,6.77-17c-.34,3.69-.68,7.52.58,11s4.58,6.52,8.27,6.17c3-.28,5.33-2.58,7.28-4.85a82.52,82.52,0,0,0,14.81-25,37.62,37.62,0,0,0,2.81-13.08,7,7,0,0,0-1.21-4.55c-1.74-2.13-5.26-1.92-7.45-.26s-3.34,4.33-4.3,6.9c-4.07,11-6.16,23.32-2.31,34.4,1.76,5.09,5.47,10.22,10.82,10.8,5.93.64,10.85-4.49,13.85-9.64a55.07,55.07,0,0,0,7.23-32.27,10.71,10.71,0,0,0-1.16-4.53,4.15,4.15,0,0,0-3.88-2.17c-1.53.22-2.66,1.52-3.5,2.81-3.24,5-4.47,11-5.11,16.86-1,9.21-.4,19.32,5.49,26.46A8.8,8.8,0,0,0,228.5,59c4.14,1.72,8.54-1.94,10.9-5.75a33.37,33.37,0,0,0,5-16c-.24,4.26-.48,8.59.48,12.75.56,2.37,2,5,4.43,5.16a5,5,0,0,0,3.29-1.28c4.83-3.76,6-10.49,6.53-16.58.18,3.56.51,7.12,1,10.65.28,2.19,1.5,5,3.65,4.56,1.34-.28,2-1.74,2.42-3A33.4,33.4,0,0,0,265,26.86l11.36,14.7c1.91,2.46,3.9,5.15,4,8.26s-2.54,6.52-5.58,5.86c-2.42-.52-3.76-3.34-3.48-5.79s1.78-4.58,3.3-6.53c4.11-5.24,8.89-10.08,11.8-16.06,3-6.22,3.83-13.25,4.6-20.12l-2.41,29.63c-.27,3.33-.52,6.76.53,9.93s3.76,6,7.09,6.18c2.79.13,5.38-1.66,7-3.94a24.9,24.9,0,0,0,3.14-7.7"/><path class="cls-1" d="M302.61,32.46a6.77,6.77,0,0,0,9.18,2.76,6.69,6.69,0,0,0,2.52-2.35A20.71,20.71,0,0,0,311.87,45c.28,2.65,1.63,5.72,4.28,6a4.66,4.66,0,0,0,3.93-1.93,13.88,13.88,0,0,0,2-4.11l1.84-5.28c-.33,2.36-.65,4.83.18,7.06s3.2,4.09,5.5,3.48c1.69-.45,2.82-2,3.6-3.6a20.75,20.75,0,0,0,2-6.2,9.12,9.12,0,0,0-.79-6c-1.07-1.78-3-1.59-5.06-1.59-1.44,0-3.79,2.44-4.19,4.89"/><path class="cls-1" d="M334.8,42.46c-1,5.58,3.81,10.36,6.2,9.83a5.36,5.36,0,0,0,3.12-2.73c5.21-8.43,4.33-19.11,3.28-29l2.2,11.76c1.23,6.62,2.49,13.3,5.16,19.48.66,1.52,1.52,3.11,3,3.78,2.19,1,4.82-.55,5.94-2.66s1.12-4.61,1.1-7"/><path class="cls-1" d="M341.18,28.36a48.07,48.07,0,0,0,18.45-3.23"/><path class="cls-1" d="M368.28,34.67l4,19.72"/><path class="cls-1" d="M378.2,48.69c.54,3.17,5.14,4.09,7.76,2.24s3.63-5.23,4.27-8.38a15.64,15.64,0,0,0,.3-6.17,6,6,0,0,0-3.73-4.62,6.37,6.37,0,0,0-4,.22,8.76,8.76,0,0,0-6,7.34c-.2,3.34,2.66,6.72,6,6.62s5.75-3.13,7.26-6.09,2.75-6.3,5.52-8.13a3.88,3.88,0,0,1,2-.72,4.28,4.28,0,0,1,3.26,2.23c3.51,5.23,2.93,12.09,2.23,18.35,0-3.53.05-7.22,1.67-10.36s5.35-5.48,8.69-4.34c2.84,1,4.42,4.07,4.91,7s.15,6,.62,9A6,6,0,0,0,421.11,57a4.85,4.85,0,0,0,5.37-.44,13.89,13.89,0,0,0,3.59-4.43c1.69-2.77,3.43-5.78,3.19-9"/><path class="cls-1" d="M300.68,25.46c-3.8.9-7.55,2-11.24,3.27"/><path class="cls-1" d="M2,53.63A117.58,117.58,0,0,0,20.31,22.79c2-4.93,3.66-10.2,3.12-15.5C23.2,5.06,22.2,2.46,20,2a4.21,4.21,0,0,0-4.13,2,11.7,11.7,0,0,0-1.52,4.58,120.63,120.63,0,0,0-1.21,32.31c.56,5.69,1.7,11.72,5.68,15.84a2.47,2.47,0,0,0,2.3.81,2.28,2.28,0,0,0,1.57-1c4.78-6.81,3.68-16,2.37-24.19,3.21,3.56,7.83,6.25,12.6,5.78s9.2-5,8.31-9.73a2.69,2.69,0,0,0-.49-1.2c-1.26-1.54-3.65.24-4.73,1.92-1.91,3-3.76,6.14-4.15,9.65s1,7.47,4.24,9c3.88,1.83,8.69-.71,10.85-4.42s2.35-8.19,2.49-12.48c3.55,5.28,7,10.73,8.85,16.81.65,2.13,1.09,4.49.23,6.55s-3.45,3.51-5.4,2.42S55.76,52.89,56.7,51s2.69-3.32,4.19-4.86a23.83,23.83,0,0,0,6.67-14.54l9.17,13.33c1.68,2.44,3.42,5.09,3.36,8s-2.88,6-5.69,5.08c-2.42-.79-3.28-4-2.48-6.42s2.74-4.25,4.48-6.08A54,54,0,0,0,85,33.13c-.71,4.29-1.41,8.74-.26,12.94s4.72,8.06,9.07,8.08"/><path class="cls-2" d="M87.25,20.63h0a2.25,2.25,0,0,0,0,4.5h0a2.25,2.25,0,0,0,0-4.5Z"/><path class="cls-2" d="M184.25,26.12h0a2.25,2.25,0,0,0,0,4.5h0a2.25,2.25,0,0,0,0-4.5Z"/><path class="cls-2" d="M367.1,22.88a2.25,2.25,0,1,0,2.25,2.25,2.25,2.25,0,0,0-2.25-2.25Z"/></g></g></g></g></svg>