<svg xmlns="http://www.w3.org/2000/svg" viewBox="0 0 435.13 61.26"><defs><style>.cls-1{fill:none;stroke:#010101;stroke-linecap:round;stroke-linejoin:round;stroke-width:3.85px;}.cls-2{fill:#010101;}</style></defs><title>firma2</title><g id="Layer_2" data-name="Layer 2"><g id="Layer_1-2" data-name="Layer 1"><g id="Layer_2-2" data-name="Layer 2"><g id="Livello_1" data-name="Livello 1"><path class="cls-1" d="M104.69,36c-4.31.59-7.6,4.89-7.61,9.24a12.4,12.4,0,0,0,6.62,10.52,7.59,7.59,0,0,0,5.13,1.06c2.6-.54,4.33-3,5.64-5.28a59.34,59.34,0,0,0,7.64-30.32C122,17,121,12.07,117.2,10.27a2.41,2.41,0,0,0-2-.19,3,3,0,0,0-1.28,1.8,49.55,49.55,0,0,0,.27,33.73c1.61,4.31,4.37,8.82,8.87,9.84a4.66,4.66,0,0,0,3.32-.31,5.59,5.59,0,0,0,1.74-1.75,21,21,0,0,0,3.3-16.19c-.3,4.63-.55,9.59,1.83,13.57a4.27,4.27,0,0,0,1.94,1.91c2.33,1,4.54-1.64,5.45-4,1.89-4.88,2-11-1.77-14.72a4.49,4.49,0,0,0-2.53-1.39,4,4,0,0,0-3.83,2.36,12.31,12.31,0,0,0-1,4.64"/><path class="cls-1" d="M141.76,45.32c1,2.61,2.21,5.47,4.77,6.59,2.84,1.24,6.27-.31,8.16-2.75s2.62-5.58,3.29-8.6"/><path class="cls-1" d="M176.12,54.18a35,35,0,0,0,6.77-17c-.34,3.69-.68,7.52.58,11s4.58,6.52,8.27,6.17c3-.28,5.33-2.58,7.28-4.85a82.81,82.81,0,0,0,14.8-25,38,38,0,0,0,2.82-13.08,7,7,0,0,0-1.22-4.55c-1.74-2.13-5.25-1.92-7.44-.26s-3.34,4.33-4.31,6.9c-4.07,11-6.16,23.32-2.3,34.4,1.75,5.09,5.47,10.22,10.82,10.8C218.12,59.32,223,54.19,226,49a55.16,55.16,0,0,0,7.23-32.27,10.82,10.82,0,0,0-1.16-4.53,4.15,4.15,0,0,0-3.88-2.17c-1.53.22-2.67,1.52-3.5,2.81-3.25,5-4.47,11-5.11,16.86-1,9.21-.4,19.32,5.49,26.46a8.89,8.89,0,0,0,3.32,2.7c4.14,1.72,8.54-1.94,10.9-5.75a33.51,33.51,0,0,0,5-16c-.24,4.26-.48,8.59.48,12.75.56,2.37,2,5,4.42,5.16a5,5,0,0,0,3.29-1.28c4.83-3.76,6-10.49,6.54-16.58.17,3.56.51,7.12,1,10.65.28,2.19,1.5,5,3.64,4.56,1.34-.28,2-1.74,2.43-3A33.45,33.45,0,0,0,265,26.79l11.36,14.7c1.91,2.46,3.89,5.15,4,8.26s-2.55,6.52-5.58,5.86c-2.42-.52-3.76-3.34-3.48-5.79s1.78-4.58,3.29-6.53c4.11-5.24,8.9-10.08,11.8-16.06,3-6.22,3.83-13.25,4.6-20.12l-2.41,29.63c-.27,3.33-.52,6.76.53,9.93s3.76,6,7.09,6.18c2.79.13,5.38-1.66,7-3.94a25.1,25.1,0,0,0,3.14-7.7"/><path class="cls-1" d="M302.53,32.39a6.77,6.77,0,0,0,11.7.41,20.86,20.86,0,0,0-2.44,12.12c.28,2.65,1.63,5.72,4.28,6A4.67,4.67,0,0,0,320,49a13.75,13.75,0,0,0,2-4.11l1.84-5.28c-.33,2.36-.65,4.83.18,7.06s3.2,4.09,5.5,3.48c1.69-.45,2.82-2,3.6-3.6a20.56,20.56,0,0,0,2-6.2,9,9,0,0,0-.79-6.05c-1.07-1.78-3-1.59-5.06-1.59-1.44,0-3.79,2.44-4.19,4.89"/><path class="cls-1" d="M334.72,42.39c-1,5.58,3.81,10.36,6.2,9.83A5.36,5.36,0,0,0,344,49.49c5.21-8.43,4.33-19.11,3.28-29l2.21,11.76c1.23,6.62,2.48,13.3,5.16,19.48.66,1.52,1.51,3.11,3,3.78,2.19,1,4.82-.55,5.94-2.66s1.12-4.61,1.1-7"/><path class="cls-1" d="M341.1,28.29a48.28,48.28,0,0,0,18.46-3.23"/><path class="cls-1" d="M368.2,34.6l4,19.72"/><path class="cls-1" d="M378.13,48.62c.54,3.17,5.14,4.09,7.76,2.24s3.63-5.23,4.27-8.38a15.46,15.46,0,0,0,.29-6.17,6,6,0,0,0-3.73-4.62,6.31,6.31,0,0,0-4,.22,8.76,8.76,0,0,0-6,7.34c-.2,3.34,2.66,6.72,6,6.62s5.75-3.13,7.26-6.09,2.75-6.3,5.52-8.13a3.74,3.74,0,0,1,2-.72,4.28,4.28,0,0,1,3.26,2.23c3.52,5.23,2.93,12.09,2.24,18.35,0-3.53,0-7.22,1.67-10.36s5.35-5.48,8.69-4.34c2.84,1,4.42,4.07,4.91,7s.15,6,.62,9A6,6,0,0,0,421,57a4.85,4.85,0,0,0,5.37-.44A14.28,14.28,0,0,0,430,52.09c1.69-2.77,3.42-5.78,3.19-9"/><path class="cls-1" d="M300.6,25.39a115.35,115.35,0,0,0-11.23,3.27"/><path class="cls-1" d="M1.92,53.56A117.63,117.63,0,0,0,20.23,22.72c2-4.93,3.66-10.2,3.13-15.5C23.13,5,22.13,2.39,19.94,2a4.18,4.18,0,0,0-4.13,2,11.29,11.29,0,0,0-1.52,4.58,120.21,120.21,0,0,0-1.21,32.31c.56,5.69,1.7,11.72,5.67,15.84a2.51,2.51,0,0,0,2.3.81,2.27,2.27,0,0,0,1.57-1c4.78-6.81,3.68-16,2.37-24.19,3.21,3.56,7.84,6.25,12.6,5.78s9.2-5,8.31-9.73a2.64,2.64,0,0,0-.49-1.2c-1.26-1.54-3.65.24-4.73,1.92-1.91,3-3.76,6.14-4.15,9.65s1,7.47,4.24,9c3.88,1.83,8.69-.71,10.85-4.42S54,35.12,54.11,30.83c3.55,5.28,7,10.73,8.86,16.81.65,2.13,1.09,4.49.23,6.55s-3.46,3.51-5.41,2.42-2.11-3.79-1.16-5.73,2.68-3.32,4.18-4.86a23.77,23.77,0,0,0,6.67-14.54l9.17,13.33c1.68,2.44,3.42,5.09,3.36,8s-2.88,6-5.69,5.08c-2.42-.79-3.28-4-2.48-6.42s2.75-4.25,4.49-6.08A54.43,54.43,0,0,0,85,33.06c-.71,4.29-1.41,8.74-.26,12.94s4.72,8.06,9.07,8.08"/><path class="cls-2" d="M87.17,20.56h0a2.25,2.25,0,0,0,0,4.5h0a2.25,2.25,0,0,0,0-4.5Z"/><path class="cls-2" d="M184.17,26.05h0a2.25,2.25,0,0,0,0,4.5h0a2.25,2.25,0,0,0,0-4.5Z"/><path class="cls-2" d="M367,22.81a2.25,2.25,0,1,0,2.25,2.25A2.25,2.25,0,0,0,367,22.81Z"/></g></g></g></g></svg>