<svg xmlns="http://www.w3.org/2000/svg" viewBox="0 0 83.49 10.68"><defs><style>.cls-1{fill:none;stroke:#1d1d1b;stroke-linejoin:bevel;stroke-width:0.75px;}</style></defs><title>firma</title><g id="Layer_2" data-name="Layer 2"><g id="Livello_1" data-name="Livello 1"><path class="cls-1" d="M.05,6.16A4.78,4.78,0,0,0,4,1,.8.8,0,0,0,3.76.49c-.39-.35-1,.17-1.19.64A13.89,13.89,0,0,0,1.09,8.06a2.93,2.93,0,0,0,.64,2,.74.74,0,0,0,.48.26.89.89,0,0,0,.7-.46A3.76,3.76,0,0,0,3.14,6a1.77,1.77,0,0,0,2.93.59c.32-.4.25-1.21-.26-1.2-.33,0-.52.36-.62.67a5.16,5.16,0,0,0,0,3.11.9.9,0,0,0,.3.48.83.83,0,0,0,.78,0A3.57,3.57,0,0,0,8.1,5.15L9.59,8.29a2.45,2.45,0,0,1,.32,1.17.82.82,0,0,1-.76.8c-.6,0-.77-.93-.4-1.4A3.74,3.74,0,0,1,10.28,8a2.88,2.88,0,0,0,1.83-3c-.29-.13-.52.32-.47.64a3.36,3.36,0,0,0,.81,1.49,4.26,4.26,0,0,1,.9,1.44A1.34,1.34,0,0,1,12.87,10c-.5.28-1.28-.12-1.19-.69s.59-.66,1-.84a7.37,7.37,0,0,0,2.14-1.39.9.9,0,0,0,.32-.52c0-.21-.18-.44-.38-.37a4.07,4.07,0,0,0-.33,1.71,1.56,1.56,0,0,0,.94,1.37,1,1,0,0,0,1.31-.77"/><path class="cls-1" d="M14.7,4.42,15,4.05"/><path class="cls-1" d="M18.38,6.45c-.36-.36-1-.08-1.29.36a1.65,1.65,0,0,0,1.17,2.38,2.87,2.87,0,0,0,2.39-1.46,6.73,6.73,0,0,0,1.29-2.84A3.53,3.53,0,0,0,21.17,2c-.43,0-.63.53-.69,1a11.74,11.74,0,0,0,.22,4.83,2.55,2.55,0,0,0,.95,1.63,1.46,1.46,0,0,0,1.59-.07,1.44,1.44,0,0,0,.52-1.5.92.92,0,0,0,1.35.69,1.48,1.48,0,0,0,.61-1.6,1.21,1.21,0,0,0-1-1.07,1,1,0,0,0-.94.63,2,2,0,0,0-.09,1.17,1.88,1.88,0,0,0,.41,1,.93.93,0,0,0,1,.29c.52-.18.66-.84.71-1.39a1.47,1.47,0,0,0,1.51,1.13,1.06,1.06,0,0,0,.78-1.53"/><path class="cls-1" d="M34,8.83a3.24,3.24,0,0,0,1.88-2.62,4.51,4.51,0,0,0-.14,1.55A1.47,1.47,0,0,0,36.59,9a2,2,0,0,0,1.75-.53A8.76,8.76,0,0,0,41,5.05a2.13,2.13,0,0,0,0-2.23.62.62,0,0,0-.48-.25c-.35,0-.52.43-.6.77a9.51,9.51,0,0,0,0,4,2.41,2.41,0,0,0,.54,1.19,1.78,1.78,0,0,0,2,.3,3.66,3.66,0,0,0,1.51-1.41A7.23,7.23,0,0,0,45,3c-.05-.72-.44-1.62-1.17-1.57a8.13,8.13,0,0,0-1.08,4.14,4.14,4.14,0,0,0,.55,2.16,2.11,2.11,0,0,0,1.89,1c1.34-.13,2-1.75,1.92-3.09a3.32,3.32,0,0,0-.2,1.52,1,1,0,0,0,2,.23A3.36,3.36,0,0,0,49.08,6a3.13,3.13,0,0,0,.18,1.4,1.07,1.07,0,0,0,1.14.66,1.28,1.28,0,0,0,.6-.4A3.33,3.33,0,0,0,51.48,4L53,6.7a2.21,2.21,0,0,1,.38,1.39c-.09.49-.7.88-1.09.58.06-.38.46-.6.8-.77a6.65,6.65,0,0,0,2.66-2,2.78,2.78,0,0,0,.14-3.15,11.1,11.1,0,0,0,.37,5.12,1.93,1.93,0,0,0,.54,1,1.1,1.1,0,0,0,1.68-1"/><path class="cls-1" d="M55.19,5.43a6.64,6.64,0,0,0,2.9-.24"/><path class="cls-1" d="M34.33,4.89l.14.19a.15.15,0,0,1-.23.07"/><path class="cls-1" d="M58.85,6a1.53,1.53,0,0,0,1.91.08,1.42,1.42,0,0,0-1,1.31,1.3,1.3,0,0,0,1,1.27,1.18,1.18,0,0,0,1.32-.92,2.41,2.41,0,0,0,.34.88.84.84,0,0,0,.82.38,1.19,1.19,0,0,0,.52-.33c.65-.62,1.23-1.59.78-2.37a1.32,1.32,0,0,0-1.74-.41,1.64,1.64,0,0,0-.7,1.73,1.54,1.54,0,0,0,1.52,1.22,1.13,1.13,0,0,0,.93-1.54A1.66,1.66,0,0,0,65,9.05a.88.88,0,0,0,.73.25c.37-.08.57-.47.7-.82a10.67,10.67,0,0,0,.43-5.92,10.15,10.15,0,0,0,.37,4.66,4.33,4.33,0,0,0,.47,1.32,1.45,1.45,0,0,0,1.13.74c.7,0,1.23-.61,1.6-1.21"/><path class="cls-1" d="M70.8,5.82a5.11,5.11,0,0,0,.42,2.53,1.47,1.47,0,0,0,.52.7,1.21,1.21,0,0,0,1.56-.5,3.47,3.47,0,0,0,.4-1.75,2.36,2.36,0,0,0,.13,1.9,1.31,1.31,0,0,0,1.7.52,1.6,1.6,0,0,0,.62-1.5A2.12,2.12,0,0,0,75.24,6a1.27,1.27,0,0,0-1.77.44.74.74,0,0,0,0,.68.9.9,0,0,0,.58.38,2.72,2.72,0,0,0,2.19-.29c.63-.39,1.25-1.08,2-.87a9.46,9.46,0,0,1,0,3.14,8.59,8.59,0,0,1,1.43-2.83c.47.15.63.73.74,1.22s.36,1.07.86,1.1a1,1,0,0,0,.65-.22A3.3,3.3,0,0,0,83.13,7"/><path class="cls-1" d="M67.06,3.84a13.74,13.74,0,0,0,2.63-.28"/><path class="cls-1" d="M71.83,4.42a.14.14,0,0,0-.19-.09"/></g></g></svg>