<?xml version="1.0" encoding="utf-8"?>
<!-- Generator: Adobe Illustrator 23.0.3, SVG Export Plug-In . SVG Version: 6.00 Build 0)  -->
<svg version="1.1" id="Layer_1" xmlns="http://www.w3.org/2000/svg" xmlns:xlink="http://www.w3.org/1999/xlink" x="0px" y="0px"
	 viewBox="0 0 83.8 10.7" style="enable-background:new 0 0 83.8 10.7;" xml:space="preserve">
<style type="text/css">
	.st0{fill:none;stroke:#FFFFFF;stroke-width:0.75;stroke-linecap:round;stroke-linejoin:round;}
</style>
<title>firma</title>
<g>
	<g id="Livello_1">
		<path class="st0" d="M0.4,6.2C2.8,5.7,4.6,3.5,4.3,1c0-0.2-0.1-0.4-0.2-0.5c-0.4-0.3-1,0.2-1.2,0.6C1.8,3.3,1.3,5.7,1.4,8.1
			c0,0.7,0.2,1.4,0.6,2c0.1,0.1,0.3,0.2,0.5,0.3c0.3,0,0.6-0.2,0.7-0.5C4,8.7,4.1,7.2,3.5,6c0.4,0.9,1.4,1.4,2.3,1
			C6,6.9,6.2,6.8,6.4,6.6c0.3-0.4,0.3-1.2-0.3-1.2c-0.3,0-0.5,0.4-0.6,0.7c-0.3,1-0.3,2.1,0,3.1c0,0.2,0.2,0.4,0.3,0.5
			c0.2,0.1,0.5,0.1,0.8,0c1.7-0.8,2.5-2.8,1.8-4.5l1.5,3.1c0.2,0.4,0.3,0.8,0.3,1.2c0,0.4-0.3,0.8-0.8,0.8c-0.6,0-0.8-0.9-0.4-1.4
			c0.4-0.4,1-0.7,1.5-0.9c1.2-0.5,2-1.7,1.8-3c-0.3-0.1-0.5,0.3-0.5,0.6c0.1,0.6,0.4,1.1,0.8,1.5c0.4,0.4,0.7,0.9,0.9,1.4
			c0.1,0.5,0,1.1-0.5,1.4c-0.5,0.3-1.3-0.1-1.2-0.7s0.6-0.7,1-0.8c0.8-0.3,1.5-0.8,2.1-1.4c0.2-0.1,0.3-0.3,0.3-0.5
			c0-0.2-0.2-0.4-0.4-0.4c-0.2,0.5-0.3,1.1-0.3,1.7c0,0.6,0.4,1.1,0.9,1.4c0.5,0.2,1.1-0.1,1.3-0.6c0,0,0-0.1,0-0.1"/>
		<path class="st0" d="M15,4.4L15.3,4"/>
		<path class="st0" d="M18.7,6.4c-0.4-0.4-1-0.1-1.3,0.4C17,7.6,17.3,8.6,18.1,9c0.1,0.1,0.3,0.1,0.5,0.2c1,0,1.9-0.6,2.4-1.5
			c0.6-0.8,1.1-1.8,1.3-2.8c0.2-1-0.1-2.1-0.8-2.9c-0.4,0-0.6,0.5-0.7,1c-0.3,1.6-0.2,3.3,0.2,4.8c0.1,0.6,0.4,1.2,1,1.6
			c0.5,0.3,1.1,0.3,1.6-0.1C24,9,24.2,8.4,24.1,7.9c0.1,0.5,0.5,0.9,1,0.8c0.1,0,0.2,0,0.3-0.1C26,8.2,26.2,7.6,26,7
			c-0.1-0.5-0.5-1-1-1.1c-0.4,0-0.8,0.2-0.9,0.6C24,6.9,23.9,7.3,24,7.7c0,0.4,0.2,0.7,0.4,1c0.2,0.3,0.6,0.4,1,0.3
			c0.5-0.2,0.7-0.8,0.7-1.4c0.2,0.7,0.8,1.2,1.5,1.1c0.6-0.1,1-0.6,0.9-1.2c0-0.1-0.1-0.2-0.1-0.3"/>
		<path class="st0" d="M34.3,8.8c1-0.5,1.8-1.5,1.9-2.6c-0.1,0.5-0.2,1-0.1,1.6c0,0.5,0.4,1,0.8,1.2c0.6,0.1,1.3-0.1,1.8-0.5
			c1.2-0.9,2.1-2.1,2.7-3.4c0.4-0.7,0.4-1.5,0-2.2c-0.1-0.2-0.3-0.2-0.5-0.3c-0.3,0-0.5,0.4-0.6,0.8c-0.3,1.3-0.3,2.7,0,4
			c0.1,0.4,0.3,0.9,0.5,1.2c0.5,0.5,1.3,0.6,2,0.3c0.6-0.3,1.2-0.8,1.5-1.4c0.8-1.3,1.2-2.9,1-4.4c0-0.7-0.4-1.6-1.2-1.6
			c-0.7,1.3-1.1,2.7-1.1,4.1c0,0.8,0.2,1.5,0.5,2.2c0.4,0.7,1.1,1,1.9,1c1.3-0.1,2-1.8,1.9-3.1c-0.2,0.5-0.3,1-0.2,1.5
			c-0.1,0.6,0.3,1.1,0.9,1.1c0.6,0.1,1.1-0.3,1.1-0.9c0.2-0.4,0.2-0.9,0.2-1.4c0,0.5,0,1,0.2,1.4c0.2,0.5,0.7,0.7,1.1,0.7
			C51,8,51.2,7.8,51.3,7.7c0.9-1,1.1-2.5,0.5-3.7l1.5,2.7c0.3,0.4,0.4,0.9,0.4,1.4C53.6,8.6,53,9,52.6,8.7c0.1-0.4,0.5-0.6,0.8-0.8
			c1-0.4,2-1.1,2.7-2c0.7-0.9,0.8-2.2,0.1-3.1c-0.3,1.7-0.2,3.5,0.4,5.1c0.1,0.4,0.3,0.7,0.5,1c0.5,0.3,1.2,0.2,1.5-0.4
			c0.1-0.2,0.2-0.4,0.2-0.6"/>
		<path class="st0" d="M55.5,5.4c1,0.1,2,0.1,2.9-0.2"/>
		<path class="st0" d="M34.7,4.9l0.1,0.2c0,0.1-0.1,0.1-0.2,0.1c0,0,0,0,0,0"/>
		<path class="st0" d="M59.2,6c0.5,0.5,1.3,0.5,1.9,0.1c-0.6,0.2-1,0.7-1,1.3c0,0.6,0.4,1.1,1,1.3c0.6,0.1,1.2-0.3,1.3-0.9
			c0.1,0.3,0.2,0.6,0.3,0.9C62.9,8.9,63.2,9,63.6,9c0.2-0.1,0.4-0.2,0.5-0.3c0.6-0.6,1.2-1.6,0.8-2.4c-0.4-0.6-1.1-0.7-1.7-0.4
			c-0.6,0.4-0.8,1.1-0.7,1.7c0.2,0.7,0.8,1.2,1.5,1.2c0.6-0.1,1.1-0.6,1-1.2c0-0.1,0-0.2-0.1-0.3c-0.2,0.6,0,1.3,0.5,1.8
			c0.2,0.2,0.5,0.3,0.7,0.3c0.4-0.1,0.6-0.5,0.7-0.8c0.7-1.9,0.8-3.9,0.4-5.9c-0.2,1.6-0.1,3.2,0.4,4.7c0.1,0.5,0.2,0.9,0.5,1.3
			c0.2,0.4,0.7,0.7,1.1,0.7c0.7,0,1.2-0.6,1.6-1.2"/>
		<path class="st0" d="M71.1,5.8c-0.1,0.9,0.1,1.7,0.4,2.5c0.1,0.3,0.3,0.5,0.5,0.7c0.6,0.3,1.2,0,1.6-0.5C73.9,8,74,7.4,74,6.8
			c-0.2,0.6-0.2,1.3,0.1,1.9c0.3,0.6,1.1,0.8,1.7,0.5c0.5-0.4,0.7-0.9,0.6-1.5c0-0.7-0.3-1.3-0.9-1.7c-0.6-0.4-1.4-0.2-1.7,0.4
			c0,0,0,0,0,0c-0.1,0.2-0.1,0.5,0,0.7c0.1,0.2,0.3,0.3,0.6,0.4c0.7,0.2,1.5,0.1,2.2-0.3c0.6-0.4,1.3-1.1,2-0.9c0.2,1,0.2,2.1,0,3.1
			c0.3-1,0.8-2,1.4-2.8c0.5,0.2,0.6,0.7,0.7,1.2s0.4,1.1,0.9,1.1c0.2,0,0.5-0.1,0.7-0.2c0.6-0.4,1-1,1.2-1.8"/>
		<path class="st0" d="M67.4,3.8c0.9,0,1.8-0.1,2.6-0.3"/>
		<path class="st0" d="M72.2,4.4c0-0.1-0.1-0.1-0.2-0.1c0,0,0,0,0,0"/>
	</g>
</g>
</svg>
